# xmcd
#
# Track frame offsets:
#	150
#	12801
#	23842
#	35672
#	46948
#	58841
#	71994
#	89183
#	100762
#	115927
#	127645
#	138074
#	152100
#	163556
#	173370
#	183917
#	199082
#	213998
#	226087
#	242077
#
# Disc length: 3376 seconds
#
# Revision: 0
# Processed by: cddbd v1.5.2PL0 Copyright (c) Steve Scherf et al.
# Submitted via: audiograbber 1.83.01
#
DISCID=040d2e14
DTITLE=George Jones - The Legendary CD3
DYEAR=1998
DGENRE=Country
TTITLE0=White Lightnin'
TTITLE1=Tender Years
TTITLE2=The Window Up Above
TTITLE3=Tall Tall Trees
TTITLE4=She Thinks I Still Care
TTITLE5=Same Ole Me
TTITLE6=Bartender's Blues
TTITLE7=The One I Loved Back Then
TTITLE8=Somebody Wants Me Out Of The Way
TTITLE9=Someday My Day Will Come
TTITLE10=Why Baby Why
TTITLE11=A Good Year For The Roses
TTITLE12=I'll Share My World With You
TTITLE13=The Race Is On
TTITLE14=Walk Through This World With Me
TTITLE15=Wine Colored Roses
TTITLE16=The Right Left Hand
TTITLE17=I Turn To You
TTITLE18=I Don't Need Your Rockin' Chair
TTITLE19=High-tech Redneck
EXTD=
EXTT0=
EXTT1=
EXTT2=
EXTT3=
EXTT4=
EXTT5=
EXTT6=
EXTT7=
EXTT8=
EXTT9=
EXTT10=
EXTT11=
EXTT12=
EXTT13=
EXTT14=
EXTT15=
EXTT16=
EXTT17=
EXTT18=
EXTT19=
PLAYORDER=
